<svg width="36" height="36" viewBox="0 0 36 36" fill="none" xmlns="http://www.w3.org/2000/svg">
<path d="M0 18C0 27.9411 8.05888 36 18 36C27.9411 36 36 27.9411 36 18C36 8.05888 27.9411 0 18 0C8.05888 0 0 8.05888 0 18Z" fill="white"/>
<path fill-rule="evenodd" clip-rule="evenodd" d="M17.969 7.875C12.3956 7.875 7.875 12.5217 7.875 18.2505C7.875 22.8335 10.7856 26.7164 14.7489 28.1168C15.2443 28.1804 15.43 27.8622 15.43 27.6075C15.43 27.3529 15.43 26.7164 15.43 25.8252C12.6433 26.4618 12.0241 24.4249 12.0241 24.4249C11.5906 23.2155 10.9094 22.8972 10.9094 22.8972C9.9805 22.2607 10.9713 22.2607 10.9713 22.2607C11.9622 22.3243 12.5195 23.3428 12.5195 23.3428C13.4484 24.9341 14.8727 24.4885 15.43 24.2339C15.492 23.5337 15.8016 23.0882 16.0493 22.8335C13.82 22.5789 11.4667 21.6878 11.4667 17.6776C11.4667 16.5319 11.8383 15.6407 12.5195 14.8769C12.4576 14.6859 12.086 13.6038 12.6433 12.2034C12.6433 12.2034 13.5103 11.9488 15.43 13.2855C16.2351 13.0309 17.1021 12.9673 17.969 12.9673C18.836 12.9673 19.703 13.0946 20.508 13.2855C22.4278 11.9488 23.2947 12.2034 23.2947 12.2034C23.8521 13.6038 23.4805 14.6859 23.4186 14.9405C24.0378 15.6407 24.4713 16.5955 24.4713 17.7413C24.4713 21.7514 22.1181 22.5789 19.8888 22.8335C20.2603 23.1518 20.57 23.7883 20.57 24.7431C20.57 26.1435 20.57 27.2256 20.57 27.6075C20.57 27.8622 20.7557 28.1804 21.2511 28.1168C25.2764 26.7164 28.125 22.8335 28.125 18.2505C28.0631 12.5217 23.5424 7.875 17.969 7.875Z" fill="black"/>
</svg>
