<svg width="36" height="36" viewBox="0 0 36 36" fill="none" xmlns="http://www.w3.org/2000/svg">
<path d="M18 36C15.54 36 13.215 35.5275 11.025 34.5825C8.835 33.6375 6.9225 32.3475 5.2875 30.7125C3.6525 29.0775 2.3625 27.165 1.4175 24.975C0.4725 22.785 0 20.46 0 18C0 15.51 0.4725 13.1775 1.4175 11.0025C2.3625 8.8275 3.6525 6.9225 5.2875 5.2875C6.9225 3.6525 8.835 2.3625 11.025 1.4175C13.215 0.4725 15.54 0 18 0C20.49 0 22.8225 0.4725 24.9975 1.4175C27.1725 2.3625 29.0775 3.6525 30.7125 5.2875C32.3475 6.9225 33.6375 8.8275 34.5825 11.0025C35.5275 13.1775 36 15.51 36 18C36 20.46 35.5275 22.785 34.5825 24.975C33.6375 27.165 32.3475 29.0775 30.7125 30.7125C29.0775 32.3475 27.1725 33.6375 24.9975 34.5825C22.8225 35.5275 20.49 36 18 36ZM18 32.31C18.78 31.23 19.455 30.105 20.025 28.935C20.595 27.765 21.06 26.52 21.42 25.2H14.58C14.94 26.52 15.405 27.765 15.975 28.935C16.545 30.105 17.22 31.23 18 32.31ZM13.32 31.59C12.78 30.6 12.3075 29.5725 11.9025 28.5075C11.4975 27.4425 11.16 26.34 10.89 25.2H5.58C6.45 26.7 7.5375 28.005 8.8425 29.115C10.1475 30.225 11.64 31.05 13.32 31.59ZM22.68 31.59C24.36 31.05 25.8525 30.225 27.1575 29.115C28.4625 28.005 29.55 26.7 30.42 25.2H25.11C24.84 26.34 24.5025 27.4425 24.0975 28.5075C23.6925 29.5725 23.22 30.6 22.68 31.59ZM4.05 21.6H10.17C10.08 21 10.0125 20.4075 9.9675 19.8225C9.9225 19.2375 9.9 18.63 9.9 18C9.9 17.37 9.9225 16.7625 9.9675 16.1775C10.0125 15.5925 10.08 15 10.17 14.4H4.05C3.9 15 3.7875 15.5925 3.7125 16.1775C3.6375 16.7625 3.6 17.37 3.6 18C3.6 18.63 3.6375 19.2375 3.7125 19.8225C3.7875 20.4075 3.9 21 4.05 21.6ZM13.77 21.6H22.23C22.32 21 22.3875 20.4075 22.4325 19.8225C22.4775 19.2375 22.5 18.63 22.5 18C22.5 17.37 22.4775 16.7625 22.4325 16.1775C22.3875 15.5925 22.32 15 22.23 14.4H13.77C13.68 15 13.6125 15.5925 13.5675 16.1775C13.5225 16.7625 13.5 17.37 13.5 18C13.5 18.63 13.5225 19.2375 13.5675 19.8225C13.6125 20.4075 13.68 21 13.77 21.6ZM25.83 21.6H31.95C32.1 21 32.2125 20.4075 32.2875 19.8225C32.3625 19.2375 32.4 18.63 32.4 18C32.4 17.37 32.3625 16.7625 32.2875 16.1775C32.2125 15.5925 32.1 15 31.95 14.4H25.83C25.92 15 25.9875 15.5925 26.0325 16.1775C26.0775 16.7625 26.1 17.37 26.1 18C26.1 18.63 26.0775 19.2375 26.0325 19.8225C25.9875 20.4075 25.92 21 25.83 21.6ZM25.11 10.8H30.42C29.55 9.3 28.4625 7.995 27.1575 6.885C25.8525 5.775 24.36 4.95 22.68 4.41C23.22 5.4 23.6925 6.4275 24.0975 7.4925C24.5025 8.5575 24.84 9.66 25.11 10.8ZM14.58 10.8H21.42C21.06 9.48 20.595 8.235 20.025 7.065C19.455 5.895 18.78 4.77 18 3.69C17.22 4.77 16.545 5.895 15.975 7.065C15.405 8.235 14.94 9.48 14.58 10.8ZM5.58 10.8H10.89C11.16 9.66 11.4975 8.5575 11.9025 7.4925C12.3075 6.4275 12.78 5.4 13.32 4.41C11.64 4.95 10.1475 5.775 8.8425 6.885C7.5375 7.995 6.45 9.3 5.58 10.8Z" fill="#0077B7"/>
</svg>
